<svg width="105" height="30" viewBox="0 0 105 30" fill="none" xmlns="http://www.w3.org/2000/svg">
<path d="M36.2169 16.6517C35.3238 16.1565 34.8537 15.7556 34.8537 15.1896C34.8537 14.4585 35.4883 14.0104 36.4989 14.0104C37.674 14.0104 38.7082 14.5056 38.7082 14.5056L39.5307 11.9822C39.5307 11.9822 38.7787 11.3926 36.5459 11.3926C33.4436 11.3926 31.2813 13.1849 31.2813 15.6848C31.2813 17.0998 32.2919 18.1847 33.6316 18.9629C34.7127 19.5761 35.0888 20.0242 35.0888 20.661C35.0888 21.3449 34.5482 21.8873 33.5376 21.8873C32.0334 21.8873 30.6233 21.1091 30.6233 21.1091L29.7537 23.6325C29.7537 23.6325 31.0698 24.5051 33.2555 24.5051C36.4519 24.5051 38.7317 22.925 38.7317 20.095C38.7787 18.5384 37.6035 17.4536 36.2169 16.6517Z" fill="white"/>
<path d="M48.9553 11.3454C47.3806 11.3454 46.1585 12.1001 45.1949 13.2321L45.1479 13.2085L46.511 6.03906H42.9386L39.4838 24.2693H43.0327L44.2078 18.0432C44.6778 15.6848 45.8765 14.2462 47.0046 14.2462C47.8037 14.2462 48.1092 14.7886 48.1092 15.5669C48.1092 16.0621 48.0622 16.6517 47.9447 17.147L46.6051 24.2928H50.1539L51.5406 16.9347C51.7051 16.1565 51.7991 15.2367 51.7991 14.5999C51.8461 12.5482 50.812 11.3454 48.9553 11.3454Z" fill="white"/>
<path d="M59.884 11.3455C55.6065 11.3455 52.7627 15.2132 52.7627 19.529C52.7627 22.2883 54.4549 24.5287 57.6512 24.5287C61.8582 24.5287 64.6785 20.7553 64.6785 16.3452C64.702 13.7746 63.2214 11.3455 59.884 11.3455ZM58.1448 21.7694C56.9227 21.7694 56.4291 20.7318 56.4291 19.4347C56.4291 17.3829 57.4867 14.0576 59.4139 14.0576C60.6831 14.0576 61.0826 15.1424 61.0826 16.2037C61.0826 18.4206 60.025 21.7694 58.1448 21.7694Z" fill="white"/>
<path d="M73.7976 11.3455C71.4003 11.3455 70.0371 13.468 70.0371 13.468H69.9901L70.2017 11.5577H67.0523C66.8878 12.8548 66.6058 14.8123 66.3237 16.298L63.856 29.3162H67.4049L68.392 24.0335H68.4625C68.4625 24.0335 69.191 24.5052 70.5542 24.5052C74.7377 24.5052 77.464 20.2129 77.464 15.8735C77.464 13.4916 76.4063 11.3455 73.7976 11.3455ZM70.4132 21.8402C69.4966 21.8402 68.956 21.3214 68.956 21.3214L69.5436 17.9961C69.9666 15.7792 71.1183 14.2934 72.3404 14.2934C73.4215 14.2934 73.7506 15.3075 73.7506 16.2509C73.7506 18.5385 72.3874 21.8402 70.4132 21.8402Z" fill="white"/>
<path d="M82.5405 6.22778C81.4123 6.22778 80.4957 7.12396 80.4957 8.30315C80.4957 9.36441 81.1538 10.0955 82.1644 10.0955H82.2114C83.316 10.0955 84.2796 9.34083 84.3032 8.02014C84.3267 6.95888 83.6216 6.22778 82.5405 6.22778Z" fill="white"/>
<path d="M77.558 24.2693H81.1304L83.5511 11.6284H79.9553L77.558 24.2693Z" fill="white"/>
<path d="M92.5762 11.6048H90.1084L90.2259 11.0152C90.4374 9.78887 91.1425 8.70402 92.3411 8.70402C92.9757 8.70402 93.4692 8.89269 93.4692 8.89269L94.1743 6.10981C94.1743 6.10981 93.5633 5.80322 92.2471 5.80322C90.978 5.80322 89.7323 6.15698 88.7687 6.98241C87.5466 8.02009 86.9825 9.50586 86.7005 11.0152L86.6065 11.6048H84.9613L84.4443 14.2934H86.0894L84.2092 24.2693H87.7581L89.6383 14.2934H92.0826L92.5762 11.6048Z" fill="white"/>
<path d="M101.131 11.6284C101.131 11.6284 98.8983 17.2413 97.9112 20.3072H97.8642C97.7937 19.3167 96.9946 11.6284 96.9946 11.6284H93.2577L95.3964 23.2316C95.4434 23.491 95.4199 23.6561 95.3259 23.8212C94.9029 24.623 94.2213 25.4013 93.3987 25.9673C92.7406 26.4626 91.9886 26.7691 91.401 26.9814L92.3881 30.0001C93.1167 29.835 94.5974 29.2454 95.8665 28.0663C97.4882 26.5333 98.9923 24.1985 100.52 20.9911L104.868 11.6284H101.131Z" fill="white"/>
<path d="M17.5094 3.42124C17.5094 3.42124 17.1804 3.51558 16.6398 3.68066C16.5458 3.37407 16.4048 3.02032 16.2168 2.64298C15.6057 1.46379 14.6891 0.827035 13.608 0.827035C13.5375 0.827035 13.467 0.827035 13.373 0.850619C13.3495 0.803451 13.3025 0.779868 13.279 0.7327C12.8089 0.213859 12.1978 -0.0219779 11.4693 0.00160577C10.0591 0.0487732 8.64896 1.06287 7.52083 2.87882C6.72174 4.15234 6.11068 5.75603 5.94616 7.00596C4.32448 7.50122 3.19635 7.85498 3.17285 7.87856C2.35026 8.13798 2.32676 8.16156 2.23275 8.93983C2.16224 9.52942 0 26.1323 0 26.1323L17.768 29.2218V3.39766C17.6269 3.39766 17.5564 3.42124 17.5094 3.42124ZM13.3965 4.69476C12.4564 4.97776 11.4223 5.30794 10.4116 5.61452C10.6937 4.50609 11.2577 3.39766 11.9158 2.66656C12.1743 2.40714 12.5269 2.10055 12.9264 1.91188C13.326 2.7609 13.42 3.9165 13.3965 4.69476ZM11.4693 0.968537C11.7983 0.968537 12.0803 1.03929 12.3154 1.18079C11.9393 1.36946 11.5633 1.67605 11.2107 2.0298C10.3176 2.99673 9.63606 4.50609 9.35403 5.9447C8.50794 6.20412 7.66185 6.46354 6.88626 6.69937C7.40332 4.43534 9.30703 1.0157 11.4693 0.968537ZM8.74297 13.9396C8.83698 15.4489 12.8089 15.7791 13.0439 19.3402C13.2085 22.1467 11.5633 24.057 9.18952 24.1985C6.3222 24.3871 4.74752 22.6891 4.74752 22.6891L5.35859 20.0949C5.35859 20.0949 6.93327 21.2977 8.20241 21.2033C9.025 21.1562 9.33053 20.4722 9.30703 20.0006C9.18952 18.0195 5.94616 18.1375 5.73463 14.8829C5.54661 12.1472 7.33281 9.38791 11.2812 9.12849C12.8089 9.03416 13.5845 9.4115 13.5845 9.4115L12.6914 12.8075C12.6914 12.8075 11.6808 12.3359 10.4822 12.4302C8.74297 12.5481 8.71946 13.6566 8.74297 13.9396ZM14.3366 4.41176C14.3366 3.70424 14.2426 2.69015 13.9135 1.84113C14.9947 2.05339 15.5117 3.25616 15.7467 3.98725C15.3237 4.10517 14.8536 4.24667 14.3366 4.41176Z" fill="white"/>
<path d="M18.3083 29.1746L25.6882 27.3351C25.6882 27.3351 22.5153 5.8032 22.4918 5.66169C22.4683 5.52019 22.3508 5.42586 22.2333 5.42586C22.1158 5.42586 20.0475 5.37869 20.0475 5.37869C20.0475 5.37869 18.7784 4.15234 18.3083 3.68066V16.4276V29.1746Z" fill="white"/>
</svg>
