<svg width="14" height="15" viewBox="0 0 14 15" fill="none" xmlns="http://www.w3.org/2000/svg">
<path fill-rule="evenodd" clip-rule="evenodd" d="M4.25197 11.4239L1.80604 11.1427C-0.0486258 10.9295 -0.574636 8.48437 1.02832 7.52739L1.09324 7.48863C1.96594 6.96761 2.50039 6.02609 2.50039 5.00969V4.5C2.50039 2.01472 4.51511 0 7.00039 0C9.48567 0 11.5004 2.01472 11.5004 4.5V5.00969C11.5004 6.02609 12.0348 6.96761 12.9075 7.48863L12.9725 7.52739C14.5754 8.48438 14.0494 10.9295 12.1947 11.1427L9.65197 11.435V11.8C9.65197 13.2912 8.44314 14.5 6.95197 14.5C5.4608 14.5 4.25197 13.2912 4.25197 11.8V11.4239ZM8.15197 11.5H5.75197V11.8C5.75197 12.4627 6.28922 13 6.95197 13C7.61471 13 8.15197 12.4627 8.15197 11.8V11.5ZM5.00039 10H9.00039L12.0235 9.65252C12.4529 9.60316 12.5747 9.03693 12.2036 8.81532L12.1386 8.77656C12.0591 8.72907 11.9814 8.67929 11.9056 8.62731C11.7506 8.52097 11.6035 8.40546 11.465 8.28179C11.4404 8.25985 11.4162 8.23766 11.3921 8.21521C10.5143 7.39498 10.0004 6.23833 10.0004 5.00969V4.5C10.0004 2.84315 8.65724 1.5 7.00039 1.5C5.34354 1.5 4.00039 2.84315 4.00039 4.5V5.00969C4.00039 6.23833 3.48645 7.39498 2.60865 8.21521C2.58463 8.23766 2.56033 8.25985 2.53577 8.28179C2.39728 8.40546 2.25023 8.52097 2.09517 8.62731C2.01939 8.67928 1.9417 8.72907 1.86216 8.77656L1.79723 8.81532C1.42604 9.03693 1.54784 9.60316 1.97733 9.65252L5.00039 10Z" fill="#D9D9D9"/>
</svg>
