<svg width="32" height="32" viewBox="0 0 32 32" fill="none" xmlns="http://www.w3.org/2000/svg">
<path d="M21.2105 3.80398C21.2105 3.80398 20.8505 3.90679 20.259 4.08671C20.1561 3.75257 20.0018 3.36703 19.7961 2.95578C19.1274 1.67064 18.1245 0.976666 16.9415 0.976666C16.8644 0.976666 16.7872 0.976666 16.6843 1.00237C16.6586 0.950963 16.6072 0.92526 16.5815 0.873855C16.0671 0.308393 15.3985 0.0513646 14.6013 0.0770674C13.0583 0.128473 11.5152 1.23369 10.2808 3.21281C9.40646 4.60076 8.73782 6.34855 8.55781 7.7108C6.78334 8.25056 5.54893 8.6361 5.52321 8.66181C4.62312 8.94454 4.59741 8.97024 4.49454 9.81843C4.34024 10.461 2 28.5815 2 28.5815L21.442 31.9486V3.75257C21.3391 3.77827 21.2619 3.77827 21.2105 3.80398ZM16.7101 5.19193C15.6814 5.50036 14.5498 5.8602 13.444 6.19434C13.7526 4.9863 14.3698 3.77827 15.0899 2.98149C15.3728 2.69875 15.7585 2.36462 16.1957 2.159C16.6329 3.0843 16.7358 4.34373 16.7101 5.19193ZM14.627 1.10518C14.987 1.10518 15.2956 1.18229 15.5528 1.33651C15.1413 1.54213 14.7299 1.87626 14.3441 2.26181C13.3669 3.31562 12.6211 4.9606 12.3125 6.52847C11.3867 6.8112 10.4609 7.09393 9.6122 7.35096C10.1523 4.9092 12.2353 1.18229 14.627 1.10518ZM11.6181 15.2417C11.721 16.8867 16.0671 17.2465 16.3243 21.1277C16.5043 24.1863 14.7041 26.2682 12.1067 26.4224C8.96928 26.6281 7.24625 24.7775 7.24625 24.7775L7.91488 21.9502C7.91488 21.9502 9.63792 23.261 11.0266 23.1582C11.9267 23.1068 12.261 22.3614 12.2353 21.8473C12.1067 19.6883 8.55781 19.8168 8.32635 16.2698C8.12062 13.314 10.0751 10.3068 14.3955 10.0241C16.0671 9.92124 16.9158 10.3325 16.9158 10.3325L15.9386 14.0337C15.9386 14.0337 14.8327 13.5196 13.5212 13.6224C11.6181 13.751 11.5924 14.959 11.6181 15.2417ZM17.7387 4.88349C17.7387 4.11241 17.6359 3.00719 17.2758 2.08189C18.4588 2.31321 19.0246 3.62406 19.2817 4.42084C18.8188 4.54936 18.3045 4.70357 17.7387 4.88349Z" fill="white"/>
<path d="M22.0848 31.8458L30.1599 29.841C30.1599 29.841 26.6882 6.37429 26.6624 6.22007C26.6367 6.06585 26.5081 5.96304 26.3796 5.96304C26.251 5.96304 23.9879 5.91164 23.9879 5.91164C23.9879 5.91164 22.5992 4.57509 22.0848 4.06104V31.8458Z" fill="white"/>
</svg>
