<svg width="32" height="32" viewBox="0 0 32 32" fill="none" xmlns="http://www.w3.org/2000/svg">
<rect width="32" height="32" rx="8" fill="#303030"/>
<path fill-rule="evenodd" clip-rule="evenodd" d="M13.252 20.4239L10.806 20.1427C8.95137 19.9295 8.42536 17.4844 10.0283 16.5274L10.0932 16.4886C10.9659 15.9676 11.5004 15.0261 11.5004 14.0097V13.5C11.5004 11.0147 13.5151 9 16.0004 9C18.4857 9 20.5004 11.0147 20.5004 13.5V14.0097C20.5004 15.0261 21.0348 15.9676 21.9075 16.4886L21.9725 16.5274C23.5754 17.4844 23.0494 19.9295 21.1947 20.1427L18.652 20.435V20.8C18.652 22.2912 17.4431 23.5 15.952 23.5C14.4608 23.5 13.252 22.2912 13.252 20.8V20.4239ZM17.152 20.5H14.752V20.8C14.752 21.4627 15.2892 22 15.952 22C16.6147 22 17.152 21.4627 17.152 20.8V20.5ZM14.0004 19H18.0004L21.0235 18.6525C21.4529 18.6032 21.5747 18.0369 21.2036 17.8153L21.1386 17.7766C21.0591 17.7291 20.9814 17.6793 20.9056 17.6273C20.7506 17.521 20.6035 17.4055 20.465 17.2818C20.4404 17.2598 20.4162 17.2377 20.3921 17.2152C19.5143 16.395 19.0004 15.2383 19.0004 14.0097V13.5C19.0004 11.8431 17.6572 10.5 16.0004 10.5C14.3435 10.5 13.0004 11.8431 13.0004 13.5V14.0097C13.0004 15.2383 12.4864 16.395 11.6086 17.2152C11.5846 17.2377 11.5603 17.2598 11.5358 17.2818C11.3973 17.4055 11.2502 17.521 11.0952 17.6273C11.0194 17.6793 10.9417 17.7291 10.8622 17.7766L10.7972 17.8153C10.426 18.0369 10.5478 18.6032 10.9773 18.6525L14.0004 19Z" fill="#E3E3E3"/>
</svg>
